<?xml version="1.0" encoding="utf-8"?>
<!-- Generator: Adobe Illustrator 24.1.1, SVG Export Plug-In . SVG Version: 6.00 Build 0)  -->
<svg version="1.1" id="Layer_1" xmlns:sketch="http://www.bohemiancoding.com/sketch/ns"
	 xmlns="http://www.w3.org/2000/svg" xmlns:xlink="http://www.w3.org/1999/xlink" x="0px" y="0px" viewBox="0 0 32 32"
	 style="enable-background:new 0 0 32 32;" xml:space="preserve">
<style type="text/css">
	.st0{fill-rule:evenodd;clip-rule:evenodd;fill:#D0D0D0;}
</style>
<desc>Created with Sketch.</desc>
<g id="Page-1" sketch:type="MSPage">
	<g id="icon-28-moon" sketch:type="MSArtboardGroup">
		<path id="moon" sketch:type="MSShapeGroup" class="st0" d="M22.8,17.7C22.1,20.8,19.3,23,16,23c-3.9,0-7-3.1-7-7
			c0-3.3,2.3-6.1,5.3-6.8C14.7,9.1,15.2,9,15.7,9c-0.2,0.6-0.3,1.2-0.3,1.9c0,3.2,2.6,5.8,5.8,5.8c0.7,0,1.3-0.1,1.9-0.3
			C23,16.8,22.9,17.3,22.8,17.7L22.8,17.7z M10.3,16c0-2.5,1.6-4.6,3.8-5.4c0,0.1,0,0.2,0,0.3c0,3.9,3.1,7,7,7c0.1,0,0.2,0,0.3,0
			c-0.8,2.2-2.9,3.8-5.4,3.8C12.8,21.7,10.3,19.2,10.3,16L10.3,16z"/>
	</g>
</g>
</svg>
